<svg xmlns="http://www.w3.org/2000/svg" width="45" height="45" fill="none" viewBox="0 0 45 45">
  <path fill="#fff" d="M0 0h45v45H0z"/>
  <path fill="#D1D1D1" d="M13.75 39h-1.106l-3.048-4.872h-.034l.017.363c.011.13.02.267.025.413l.017.44c.006.146.009.295.009.447V39h-.828v-6.03H9.9l3.04 4.848h.025a15.957 15.957 0 0 1-.017-.313l-.016-.413c0-.147-.003-.296-.009-.448a81.144 81.144 0 0 0-.017-.43V32.97h.845V39Zm5.518-2.28c0 .377-.05.712-.152 1.005a2.1 2.1 0 0 1-.43.743 1.84 1.84 0 0 1-.676.464 2.486 2.486 0 0 1-.895.152c-.304 0-.586-.05-.845-.152a1.932 1.932 0 0 1-.675-.464 2.205 2.205 0 0 1-.44-.743 2.946 2.946 0 0 1-.16-1.013c0-.502.085-.927.253-1.276.175-.349.423-.613.744-.793.326-.186.709-.279 1.148-.279.417 0 .782.093 1.098.279.32.18.571.444.751.793.186.35.279.777.279 1.284Zm-3.353 0c0 .338.043.63.127.878.085.242.217.428.397.558.18.129.411.194.692.194.282 0 .513-.065.693-.194.18-.13.312-.316.397-.558a2.73 2.73 0 0 0 .127-.878 2.48 2.48 0 0 0-.136-.878 1.067 1.067 0 0 0-.396-.54c-.175-.13-.406-.195-.693-.195-.422 0-.729.14-.92.422-.192.282-.287.679-.287 1.191Zm7.576-2.272V39h-.895v-4.552h.895Zm-.439-1.73a.56.56 0 0 1 .355.118c.101.078.152.21.152.396 0 .18-.05.313-.152.397a.562.562 0 0 1-.355.119.587.587 0 0 1-.371-.119c-.096-.084-.144-.216-.144-.397 0-.185.048-.318.144-.396a.587.587 0 0 1 .371-.119Zm6.945 1.646c.513 0 .898.132 1.157.397.26.264.389.69.389 1.275V39h-.895v-2.846c0-.349-.07-.61-.211-.785-.136-.18-.35-.27-.642-.27-.405 0-.695.126-.87.38-.174.247-.262.608-.262 1.08V39h-.886v-2.846c0-.23-.034-.425-.102-.582a.713.713 0 0 0-.278-.355.884.884 0 0 0-.482-.118c-.281 0-.504.062-.667.185-.163.124-.281.307-.355.55a3.21 3.21 0 0 0-.1.87V39h-.896v-4.552h.71l.126.608h.05a1.36 1.36 0 0 1 .347-.388c.14-.101.296-.177.464-.228.17-.05.344-.076.524-.076.343 0 .633.062.87.186.236.118.408.301.515.549h.067c.147-.254.35-.44.608-.558a1.95 1.95 0 0 1 .82-.177Zm4.486 0c.293 0 .558.056.794.169.237.112.436.284.6.515h.042l.101-.6h.726v4.611c0 .428-.076.788-.227 1.081a1.453 1.453 0 0 1-.701.659c-.31.152-.701.228-1.174.228-.327 0-.628-.023-.904-.068a3.416 3.416 0 0 1-.76-.211v-.785c.164.078.335.143.515.194.18.056.372.096.575.118.202.028.41.042.624.042.372 0 .66-.107.862-.32.203-.209.304-.504.304-.887v-.152a7.188 7.188 0 0 1 .025-.557h-.034a1.476 1.476 0 0 1-.582.523c-.225.107-.487.16-.786.16-.574 0-1.024-.205-1.35-.616-.322-.417-.482-.994-.482-1.731 0-.495.073-.918.22-1.267a1.83 1.83 0 0 1 .624-.819 1.69 1.69 0 0 1 .988-.287Zm.186.743a.935.935 0 0 0-.6.194 1.134 1.134 0 0 0-.371.55c-.084.241-.127.54-.127.894 0 .53.093.932.279 1.208.191.276.47.414.836.414.214 0 .394-.028.54-.085a.844.844 0 0 0 .372-.262c.101-.118.175-.267.22-.447a2.59 2.59 0 0 0 .076-.667v-.17c0-.388-.045-.7-.136-.936-.084-.242-.216-.417-.396-.524-.18-.113-.411-.169-.693-.169Z"/>
  <path fill="#DADADA" d="M22.492 22.37c.355 0 .655-.12.9-.36s.367-.538.367-.892c0-.355-.12-.656-.36-.903a1.192 1.192 0 0 0-.891-.371c-.355 0-.655.121-.9.365a1.214 1.214 0 0 0-.367.896c0 .355.12.654.36.898a1.2 1.2 0 0 0 .891.366Zm.002-4.448c.34 0 .628-.118.866-.353s.357-.523.357-.864v-4.766c0-.341-.117-.63-.35-.864a1.166 1.166 0 0 0-.86-.353c-.34 0-.629.117-.867.353a1.168 1.168 0 0 0-.357.864v4.766c0 .34.117.629.35.864.235.235.521.353.86.353ZM22.508 28c-1.587 0-3.08-.3-4.476-.898a11.583 11.583 0 0 1-3.665-2.469 11.587 11.587 0 0 1-2.47-3.664A11.279 11.279 0 0 1 11 16.487c0-1.593.3-3.083.898-4.47a11.586 11.586 0 0 1 6.133-6.12A11.279 11.279 0 0 1 22.513 5c1.593 0 3.083.3 4.47.898a11.609 11.609 0 0 1 6.12 6.126c.598 1.391.897 2.88.897 4.468 0 1.587-.3 3.08-.898 4.476a11.583 11.583 0 0 1-2.469 3.665 11.608 11.608 0 0 1-3.657 2.47c-1.391.598-2.88.897-4.468.897Z"/>
</svg>
