<svg xmlns="http://www.w3.org/2000/svg" width="20" height="20" fill="none" viewBox="0 0 20 20">
  <mask id="a" width="20" height="20" x="0" y="0" maskUnits="userSpaceOnUse" style="mask-type:luminance">
    <path fill="#fff" d="M19.318 8.182H10v3.864h5.364c-.5 2.454-2.591 3.863-5.364 3.863A5.897 5.897 0 0 1 4.09 10 5.897 5.897 0 0 1 10 4.09c1.41 0 2.682.5 3.682 1.32L16.59 2.5C14.818.955 12.545 0 10 0 4.455 0 0 4.455 0 10c0 5.546 4.455 10 10 10 5 0 9.546-3.636 9.546-10a8.3 8.3 0 0 0-.228-1.818Z"/>
  </mask>
  <g mask="url(#a)">
    <path fill="#FBBC05" d="M-.91 15.909V4.091L6.819 10l-7.727 5.909Z"/>
  </g>
  <mask id="b" width="20" height="20" x="0" y="0" maskUnits="userSpaceOnUse" style="mask-type:luminance">
    <path fill="#fff" d="M19.318 8.182H10v3.864h5.364c-.5 2.454-2.591 3.863-5.364 3.863A5.897 5.897 0 0 1 4.09 10 5.897 5.897 0 0 1 10 4.09c1.41 0 2.682.5 3.682 1.32L16.59 2.5C14.818.955 12.545 0 10 0 4.455 0 0 4.455 0 10c0 5.546 4.455 10 10 10 5 0 9.546-3.636 9.546-10a8.3 8.3 0 0 0-.228-1.818Z"/>
  </mask>
  <g mask="url(#b)">
    <path fill="#EA4335" d="M-.91 4.09 6.819 10 10 7.227l10.91-1.773V-.909H-.91v5Z"/>
  </g>
  <mask id="c" width="20" height="20" x="0" y="0" maskUnits="userSpaceOnUse" style="mask-type:luminance">
    <path fill="#fff" d="M19.318 8.182H10v3.864h5.364c-.5 2.454-2.591 3.863-5.364 3.863A5.897 5.897 0 0 1 4.09 10 5.897 5.897 0 0 1 10 4.09c1.41 0 2.682.5 3.682 1.32L16.59 2.5C14.818.955 12.545 0 10 0 4.455 0 0 4.455 0 10c0 5.546 4.455 10 10 10 5 0 9.546-3.636 9.546-10a8.3 8.3 0 0 0-.228-1.818Z"/>
  </mask>
  <g mask="url(#c)">
    <path fill="#34A853" d="M-.91 15.909 12.728 5.454l3.591.455L20.91-.909v21.818H-.909v-5Z"/>
  </g>
  <mask id="d" width="20" height="20" x="0" y="0" maskUnits="userSpaceOnUse" style="mask-type:luminance">
    <path fill="#fff" d="M19.318 8.182H10v3.864h5.364c-.5 2.454-2.591 3.863-5.364 3.863A5.897 5.897 0 0 1 4.09 10 5.897 5.897 0 0 1 10 4.09c1.41 0 2.682.5 3.682 1.32L16.59 2.5C14.818.955 12.545 0 10 0 4.455 0 0 4.455 0 10c0 5.546 4.455 10 10 10 5 0 9.546-3.636 9.546-10a8.3 8.3 0 0 0-.228-1.818Z"/>
  </mask>
  <g mask="url(#d)">
    <path fill="#4285F4" d="M20.91 20.909 6.817 9.999 5 8.637l15.91-4.545V20.91Z"/>
  </g>
</svg>
