<svg xmlns="http://www.w3.org/2000/svg" width="24" height="24" fill="none" viewBox="0 0 24 24">
  <path fill="#333" d="M12.005 15.062c.99 0 1.83-.347 2.521-1.04.69-.694 1.036-1.536 1.036-2.527 0-.99-.347-1.83-1.04-2.521-.694-.69-1.536-1.036-2.527-1.036-.99 0-1.83.347-2.521 1.04-.69.694-1.036 1.536-1.036 2.527 0 .99.347 1.83 1.04 2.52.694.691 1.536 1.037 2.527 1.037Zm-.003-.893c-.741 0-1.372-.26-1.891-.778a2.57 2.57 0 0 1-.78-1.89c0-.74.26-1.37.778-1.89a2.57 2.57 0 0 1 1.89-.78c.74 0 1.37.26 1.89.778.52.518.78 1.148.78 1.89 0 .74-.26 1.37-.778 1.89a2.57 2.57 0 0 1-1.89.78ZM12 17.877a9.78 9.78 0 0 1-5.35-1.546 12.08 12.08 0 0 1-3.933-4.046 1.312 1.312 0 0 1-.171-.39 1.674 1.674 0 0 1 0-.79c.03-.128.088-.258.171-.39A12.081 12.081 0 0 1 6.65 6.67 9.78 9.78 0 0 1 12 5.123c1.945 0 3.729.515 5.351 1.546a12.087 12.087 0 0 1 3.933 4.044 1.38 1.38 0 0 1 .228.79 1.391 1.391 0 0 1-.228.783 12.087 12.087 0 0 1-3.932 4.045A9.78 9.78 0 0 1 12 17.877Zm0-.923c1.869 0 3.584-.49 5.147-1.47a9.589 9.589 0 0 0 3.576-3.984 9.589 9.589 0 0 0-3.576-3.984A9.497 9.497 0 0 0 12 6.046c-1.869 0-3.584.49-5.147 1.47A9.59 9.59 0 0 0 3.277 11.5a9.59 9.59 0 0 0 3.576 3.983A9.497 9.497 0 0 0 12 16.953Z"/>
</svg>
