<svg xmlns="http://www.w3.org/2000/svg" width="76" height="76" fill="none" viewBox="0 0 76 76">
  <path fill="#DADADA" d="M0 0h76v76H0z"/>
  <path fill="#fff" d="M38 60.4c6.253 0 11.55-2.17 15.89-6.51S60.4 44.253 60.4 38c0-1.12-.07-2.205-.21-3.255a13.559 13.559 0 0 0-.77-3.045c-.98.233-1.96.408-2.94.525-.98.117-2.007.175-3.08.175-4.247 0-8.26-.91-12.04-2.73-3.78-1.82-7-4.363-9.66-7.63-1.493 3.64-3.628 6.802-6.405 9.485s-6.008 4.702-9.695 6.055V38c0 6.253 2.17 11.55 6.51 15.89S31.747 60.4 38 60.4Zm0 5.6c-3.873 0-7.513-.735-10.92-2.205-3.407-1.47-6.37-3.465-8.89-5.985-2.52-2.52-4.515-5.483-5.985-8.89C10.735 45.513 10 41.873 10 38s.735-7.513 2.205-10.92c1.47-3.407 3.465-6.37 5.985-8.89 2.52-2.52 5.483-4.515 8.89-5.985C30.487 10.735 34.127 10 38 10s7.513.735 10.92 2.205c3.407 1.47 6.37 3.465 8.89 5.985 2.52 2.52 4.515 5.483 5.985 8.89C65.265 30.487 66 34.127 66 38s-.735 7.513-2.205 10.92c-1.47 3.407-3.465 6.37-5.985 8.89-2.52 2.52-5.483 4.515-8.89 5.985C45.513 65.265 41.873 66 38 66Z"/>
</svg>
