<svg xmlns="http://www.w3.org/2000/svg" width="24" height="24" fill="none" viewBox="0 0 24 24">
  <path fill="#000" d="M6.825 14H16.5c1.25 0 2.313-.438 3.188-1.313C20.563 11.813 21 10.75 21 9.5c0-1.25-.438-2.313-1.313-3.188S17.75 5 16.5 5a.968.968 0 0 0-.713.287A.967.967 0 0 0 15.5 6c0 .283.096.52.287.713.192.191.43.287.713.287.7 0 1.292.242 1.775.725C18.758 8.208 19 8.8 19 9.5s-.242 1.292-.725 1.775c-.483.483-1.075.725-1.775.725H6.825L9.7 9.1a.977.977 0 0 0 .288-.688A.93.93 0 0 0 9.7 7.7a.948.948 0 0 0-.7-.275.948.948 0 0 0-.7.275l-4.6 4.6c-.2.2-.3.433-.3.7 0 .267.1.5.3.7l4.6 4.6c.2.2.433.296.7.287.267-.008.5-.112.7-.312.183-.2.28-.433.288-.7a.916.916 0 0 0-.288-.7L6.825 14Z"/>
</svg>
