<svg xmlns="http://www.w3.org/2000/svg" width="24" height="24" fill="none" viewBox="0 0 24 24">
  <path fill="#333" d="m15.366 12.646-.747-.747c.158-.906-.083-1.678-.722-2.317-.64-.639-1.405-.872-2.296-.701l-.747-.747c.18-.072.367-.122.558-.151.19-.03.387-.044.588-.044.993 0 1.835.345 2.526 1.035.69.69 1.036 1.533 1.036 2.526 0 .201-.012.398-.035.589a1.828 1.828 0 0 1-.16.557Zm3.088 3.015-.684-.61a11.062 11.062 0 0 0 1.698-1.613 8.948 8.948 0 0 0 1.255-1.938 9.576 9.576 0 0 0-3.582-3.983A9.507 9.507 0 0 0 12 6.047c-.481 0-.956.035-1.425.106-.469.07-.933.173-1.393.309L8.45 5.73a8.43 8.43 0 0 1 1.74-.468A11.702 11.702 0 0 1 12 5.123c1.973 0 3.8.51 5.48 1.527a10.498 10.498 0 0 1 3.905 4.146c.06.113.104.226.13.34a1.7 1.7 0 0 1 .002.728 1.42 1.42 0 0 1-.126.343 9.383 9.383 0 0 1-1.277 1.895 11.21 11.21 0 0 1-1.66 1.559ZM12 17.877c-1.949 0-3.736-.513-5.362-1.54a11.863 11.863 0 0 1-3.928-4.063.967.967 0 0 1-.169-.368 1.85 1.85 0 0 1 .002-.812c.032-.132.09-.256.175-.373A17.01 17.01 0 0 1 4.084 8.76a9.04 9.04 0 0 1 1.72-1.636l-2.44-2.477a.467.467 0 0 1-.135-.316.432.432 0 0 1 .14-.33.45.45 0 0 1 .323-.147c.118 0 .226.05.325.149l15.965 15.955a.488.488 0 0 1 .135.33.42.42 0 0 1-.148.331.452.452 0 0 1-.324.146.455.455 0 0 1-.323-.15l-3.494-3.492a7.31 7.31 0 0 1-1.86.587c-.645.112-1.3.168-1.968.168ZM6.465 7.77a9.545 9.545 0 0 0-1.853 1.65 8.686 8.686 0 0 0-1.335 2.08 9.575 9.575 0 0 0 3.581 3.984 9.502 9.502 0 0 0 5.14 1.47c.547 0 1.083-.037 1.608-.11a6.272 6.272 0 0 0 1.52-.413l-1.662-1.673c-.218.127-.45.21-.694.247a5.038 5.038 0 0 1-.77.057c-.994 0-1.836-.345-2.526-1.036-.69-.69-1.036-1.532-1.036-2.526 0-.258.023-.51.067-.754.044-.244.123-.476.237-.696L6.465 7.77Z"/>
</svg>
