<svg xmlns="http://www.w3.org/2000/svg" width="22" height="20" fill="none" viewBox="0 0 22 20">
  <path fill="#000" d="M10.765 0C4.82 0 0 3.824 0 8.544c0 3.051 2.014 5.724 5.047 7.242l-1.092 3.926s-.02.183.097.252c.117.07.259.017.259.017.34-.05 3.923-2.584 4.55-3.023.618.09 1.261.134 1.912.134 5.945 0 10.765-3.824 10.765-8.544C21.538 3.828 16.71 0 10.765 0Z"/>
  <path fill="#FFE812" d="M4.812 11.522a.611.611 0 0 1-.622-.598V7.209h-.971a.61.61 0 0 1 0-1.22h3.183a.61.61 0 0 1 0 1.22h-.97v3.715c0 .325-.284.598-.624.598h.004Zm5.448-.008c-.26 0-.457-.106-.518-.277l-.307-.814H7.542l-.307.814c-.06.17-.26.277-.518.277-.137 0-.27-.029-.396-.082-.17-.081-.336-.297-.146-.887L7.66 6.611c.106-.301.425-.61.83-.618.404-.009.727.317.828.618l1.485 3.934c.19.59.024.814-.146.887a.936.936 0 0 1-.396.082ZM9.107 9.317l-.619-1.774-.618 1.774h1.237Zm2.694 2.115c-.324 0-.595-.256-.595-.57v-4.25a.63.63 0 0 1 .635-.627c.352 0 .635.285.635.627v3.67h1.318c.324 0 .595.256.595.57a.584.584 0 0 1-.595.569l-1.994.012Zm2.826-.545V6.615c0-.346.283-.627.623-.627a.63.63 0 0 1 .623.627v1.343l1.739-1.75c.191-.192.553-.176.772.045.206.207.26.557.045.777l-1.424 1.424 1.529 2.034c.205.265.155.677-.122.87a.637.637 0 0 1-.869-.121l-1.456-1.94-.214.215v1.363c0 .812-1.246.843-1.246.012Z"/>
</svg>
