<svg xmlns="http://www.w3.org/2000/svg" width="24" height="24" fill="none" viewBox="0 0 24 24">
  <path fill="#fff" d="M20 10.73a.709.709 0 0 1-.52-.21.705.705 0 0 1-.21-.52c0-.206.07-.38.21-.52.14-.14.313-.21.52-.21.206 0 .38.07.52.21.14.14.21.312.21.52 0 .206-.07.38-.21.52a.705.705 0 0 1-.52.21Zm0-3.23a.483.483 0 0 1-.357-.144A.485.485 0 0 1 19.5 7V4c0-.142.048-.26.144-.356a.485.485 0 0 1 .357-.144c.141 0 .26.048.356.144A.485.485 0 0 1 20.5 4v3c0 .142-.048.26-.144.356A.485.485 0 0 1 20 7.5ZM9 11.385a2.889 2.889 0 0 1-2.119-.882A2.889 2.889 0 0 1 6 8.385c0-.825.294-1.532.881-2.12A2.889 2.889 0 0 1 9 5.386a2.89 2.89 0 0 1 2.119.88c.587.588.881 1.295.881 2.12a2.89 2.89 0 0 1-.881 2.118A2.889 2.889 0 0 1 9 11.385Zm-7 6.192v-.608c0-.413.12-.799.36-1.158.241-.36.564-.64.97-.838a14.189 14.189 0 0 1 2.833-1.018A12.14 12.14 0 0 1 9 13.615c.946 0 1.892.114 2.837.34a14.19 14.19 0 0 1 2.832 1.018c.407.199.73.478.97.838s.361.745.361 1.158v.608c0 .293-.1.54-.299.74-.2.199-.446.298-.74.298H3.038c-.293 0-.54-.1-.739-.299a1 1 0 0 1-.299-.74Zm1 .038h12v-.646c0-.222-.072-.43-.214-.625a1.726 1.726 0 0 0-.594-.494 12.688 12.688 0 0 0-2.546-.916 11.18 11.18 0 0 0-5.292 0c-.875.212-1.723.517-2.546.916-.253.135-.45.3-.594.494A1.037 1.037 0 0 0 3 16.97v.646Zm6-7.23c.55 0 1.02-.196 1.412-.588.392-.392.588-.862.588-1.412 0-.55-.196-1.021-.588-1.413A1.926 1.926 0 0 0 9 6.385c-.55 0-1.02.195-1.412.587A1.926 1.926 0 0 0 7 8.385c0 .55.196 1.02.588 1.412.391.392.862.588 1.412.588Z"/>
</svg>
