<svg xmlns="http://www.w3.org/2000/svg" width="24" height="24" fill="none" viewBox="0 0 24 24">
  <path fill="#fff" d="M11.997 5c1.953 0 3.609.678 4.966 2.033C18.322 8.39 19 10.043 19 11.997c0 1.953-.678 3.609-2.034 4.966C15.611 18.322 13.957 19 12.003 19c-1.953 0-3.609-.678-4.966-2.034C5.679 15.611 5 13.957 5 12.003c0-1.953.678-3.609 2.033-4.966C8.39 5.679 10.043 5 11.997 5ZM12 18c1.667 0 3.083-.583 4.25-1.75C17.417 15.083 18 13.667 18 12c0-1.667-.583-3.083-1.75-4.25C15.083 6.583 13.667 6 12 6c-1.667 0-3.083.583-4.25 1.75C6.583 8.917 6 10.333 6 12c0 1.667.583 3.083 1.75 4.25C8.917 17.417 10.333 18 12 18Zm0-2.885c.556 0 1.08-.124 1.57-.373a3.55 3.55 0 0 0 1.236-1.032.47.47 0 0 0 .007-.473c-.083-.158-.22-.237-.411-.237H9.598c-.191 0-.328.079-.41.237a.471.471 0 0 0 .006.473c.334.44.745.784 1.236 1.032.49.249 1.014.373 1.57.373Zm-3.23-5.112a.79.79 0 0 0 .811.804.79.79 0 0 0 .804-.811.79.79 0 0 0-.811-.804.79.79 0 0 0-.804.811Zm4.845 0a.79.79 0 0 0 .811.804.79.79 0 0 0 .804-.811.79.79 0 0 0-.811-.804.79.79 0 0 0-.804.811ZM2.5 6a.482.482 0 0 1-.356-.144A.485.485 0 0 1 2 5.5V4.385a2.3 2.3 0 0 1 .696-1.69A2.3 2.3 0 0 1 4.385 2H5.5c.142 0 .26.048.356.144A.485.485 0 0 1 6 2.5c0 .142-.048.26-.144.356A.485.485 0 0 1 5.5 3H4.385a1.34 1.34 0 0 0-.987.398A1.34 1.34 0 0 0 3 4.385V5.5c0 .142-.048.26-.144.356A.485.485 0 0 1 2.5 6Zm1.886 16a2.3 2.3 0 0 1-1.69-.695A2.3 2.3 0 0 1 2 19.614V18.5c0-.142.048-.26.144-.356A.485.485 0 0 1 2.5 18c.142 0 .26.048.356.144A.484.484 0 0 1 3 18.5v1.115c0 .393.133.722.398.987s.594.398.987.398H5.5c.142 0 .26.048.356.144a.485.485 0 0 1 .144.357c0 .141-.048.26-.144.356A.485.485 0 0 1 5.5 22H4.385Zm14.115-.192a.483.483 0 0 1-.356-.144.484.484 0 0 1-.144-.357c0-.142.048-.26.144-.356a.484.484 0 0 1 .356-.143h1.115c.393 0 .722-.133.987-.398a1.34 1.34 0 0 0 .398-.987v-1.115c0-.142.048-.26.144-.357a.485.485 0 0 1 .357-.143c.141 0 .26.048.356.143a.485.485 0 0 1 .143.357v1.115a2.3 2.3 0 0 1-.695 1.69 2.3 2.3 0 0 1-1.69.695H18.5ZM21 5.5V4.385a1.34 1.34 0 0 0-.398-.987A1.34 1.34 0 0 0 19.615 3H18.5a.483.483 0 0 1-.356-.144A.485.485 0 0 1 18 2.5c0-.142.048-.26.144-.356A.484.484 0 0 1 18.5 2h1.115a2.3 2.3 0 0 1 1.69.696A2.3 2.3 0 0 1 22 4.385V5.5c0 .142-.048.26-.144.356A.485.485 0 0 1 21.5 6a.483.483 0 0 1-.356-.144A.485.485 0 0 1 21 5.5Z"/>
</svg>
