<svg xmlns="http://www.w3.org/2000/svg" width="33" height="40" fill="none" viewBox="0 0 33 40">
  <path fill="#A8E6FE" d="M23.672 20.372c0 .009 0 .025-.008.034l.008.016c-.959.43-1.91.869-2.87 1.299-1.43.645-2.862 1.282-4.293 1.927-.024.008-.033.066-.05.1v.057c-.082.058-.214.091-.247.165-.43.919-.852 1.845-1.266 2.771-.099.224-.173.455-.256.678-.116.025-.24.05-.356.091-1.398.497-2.804.993-4.202 1.49-.016-.034-.05-.067-.05-.108a36.144 36.144 0 0 1-.107-.943c-.074-.645-.157-1.282-.231-1.927-.058-.521-.075-1.05-.166-1.572-.041-.248.042-.33.223-.43.58-.322 1.142-.653 1.72-.976.522-.29 1.043-.57 1.556-.86 1.059.513 2.117 1.025 3.226 1.555a1158.62 1158.62 0 0 1-.331-3.317c.016-.008.025-.025.041-.033.14-.091.29-.182.43-.273 1.1-.777 2.2-1.563 3.3-2.35.828-.586 1.663-1.165 2.498-1.753.034.034.083.067.091.108l.993 3.259c.108.322.232.653.347.992ZM1.026 16.427c.182-.165.372-.331.546-.496.057-.05.099-.116.157-.174.05-.017.115-.017.149-.05 1.348-1.083 2.696-2.175 4.044-3.259-.033-.058-.058-.107-.09-.165h.19c-.1.207.09.174.173.19.951.157 1.91.306 2.87.447-.256.827-.512 1.654-.777 2.481-.24.77-.48 1.539-.72 2.3l-.52 1.72c-.026.008-.05.008-.075.017-.075-.034-.15-.066-.224-.108-1.902-.96-3.813-1.935-5.723-2.903Zm14.259-6.981 4.095 2.134c.529.281 1.058.562 1.596.843-.033.025-.058.058-.091.075-1 .53-2.002 1.05-2.994 1.572-.43.223-.852.47-1.274.703-.033-.009-.074-.025-.108-.034-1.248-.579-2.49-1.158-3.738-1.728a.96.96 0 0 0-.397-.091c-1.084-.008-2.167-.008-3.25-.008.52-.298 1.041-.604 1.563-.894 1.009-.57 2.026-1.141 3.035-1.704.505-.28 1.01-.554 1.522-.827a.1.1 0 0 1 .041-.041Z"/>
  <path fill="#8ACBF7" d="M16.609 14.773c.422-.232.843-.48 1.273-.703.993-.53 1.994-1.05 2.995-1.572a.398.398 0 0 0 .09-.074l2.565.248c.595.058 1.19.099 1.795.157l.579.05c.173.016.165.107.116.24-.273.826-.53 1.654-.794 2.48-.505 1.564-1.01 3.136-1.514 4.699-.008.033-.025.058-.041.083-.116-.34-.24-.67-.348-1.01l-.992-3.258c-.017-.042-.058-.067-.091-.108-.058-.025-.116-.066-.174-.083-1.373-.28-2.746-.562-4.111-.852a327.96 327.96 0 0 1-1.348-.297Z"/>
  <path fill="#71B2F7" d="M15.236 9.479c-.505.273-1.018.546-1.522.827a329.734 329.734 0 0 0-3.036 1.704l-1.563.893c-.017.008-.033.008-.05.008-.96-.148-1.91-.297-2.87-.446-.083-.017-.273.016-.174-.19.455-.77.919-1.539 1.374-2.308.554-.926 1.108-1.861 1.662-2.788.678.249 1.357.488 2.035.737l2.944 1.091c.38.141.77.249 1.15.38l.05.05v.042Z"/>
  <path fill="#4677C8" d="M23.664 20.397c1.497-.314 2.994-.637 4.516-.96.05.306.091.596.133.894.132.992.264 1.977.413 2.97.025.148-.008.223-.107.314-1.109.984-2.217 1.976-3.334 2.96-.446.398-.893.786-1.34 1.183h-.058c.166-.818.323-1.637.488-2.464.158-.778.307-1.564.455-2.341-.016-.066-.024-.14-.057-.207l-1.117-2.332.008-.017Z"/>
  <path fill="#A8E6FE" d="M1.282 32.465c-.09-.323-.198-.637-.281-.968a364.608 364.608 0 0 1-.778-3.209c-.066-.273-.115-.554-.173-.827v-.05c.554.281 1.1.57 1.695.877.133-.538.248-1.034.364-1.53.058-.248.1-.505.15-.761l.553-.05c.406-.033.81-.074 1.208-.107a162.33 162.33 0 0 0 1.96-.19l.372 2.067c.091.513.174 1.034.265 1.547a988.617 988.617 0 0 1-4.797-.96c.05.1.058.15.09.183.43.496.86.992 1.291 1.497.265.314.53.636.786.959-.62.356-1.24.72-1.861 1.067-.282.157-.563.306-.844.455Z"/>
  <path fill="#1D3867" d="M1.282 32.465c.281-.15.562-.29.835-.447l1.861-1.067c.15.017.29.025.439.041.579.058 1.158.125 1.737.174.546.05 1.092.1 1.646.157.016.009.025.009.041.017-.033.455-.074.918-.107 1.373-.05.645-.091 1.29-.133 1.935-.173.042-.347.075-.52.116-.795.19-1.58.389-2.375.587h-.082c-1.06-.901-2.126-1.803-3.185-2.704-.066-.058-.107-.124-.157-.182Z"/>
  <path fill="#71B3F7" d="M14.706 6.021c.091-.008.166-.008.24-.008 1.729 0 3.458 0 5.186-.008.19 0 .298.066.397.207.645.91 1.307 1.811 1.96 2.713.026.041.05.074.092.149a92.44 92.44 0 0 1-1.307.107c-1.282.1-2.564.199-3.846.281-.091.009-.224-.025-.273-.09-.82-1.084-1.63-2.184-2.44-3.276 0-.008 0-.033-.009-.075Z"/>
  <path fill="#71B2F7" d="M16.617 38.627c-.48.116-.951.24-1.43.339-1.58.339-3.169.678-4.757 1.009-.066.017-.132.017-.19.025l-.248-.1c-.124-.215-.248-.43-.38-.645-.166-.29-.34-.587-.505-.876.355-.348.703-.695 1.058-1.042l1.977-1.928c.05-.05.116-.074.174-.115.951.727 1.902 1.455 2.845 2.191.505.38.976.761 1.456 1.142Z"/>
  <path fill="#8ACBF7" d="M15.194 9.388c-.38-.124-.769-.24-1.15-.38-.984-.356-1.96-.728-2.944-1.092-.678-.249-1.356-.488-2.035-.737-.066-.033-.124-.074-.198-.09-.786-.182-1.58-.364-2.366-.555-.422-.099-.835-.19-1.257-.29.43-.206.86-.413 1.299-.611C7.7 5.103 8.859 4.59 10.008 4.06c.174-.083.273-.09.43.075.803.901 1.63 1.778 2.449 2.663.727.794 1.455 1.58 2.175 2.374.041.074.083.149.132.215Z"/>
  <path fill="#A8E6FE" d="M5.244 6.253c.422.1.835.19 1.257.29.786.182 1.58.364 2.366.554.066.016.132.058.198.09-.554.927-1.108 1.862-1.662 2.788-.455.77-.918 1.539-1.373 2.308h-.19a407.235 407.235 0 0 0-1.663-1.952c-.182-.207-.389-.397-.587-.596.513-1.091 1.025-2.183 1.538-3.267.025-.082.075-.149.116-.215Z"/>
  <path fill="#8ACCF7" d="M28.255 11.075c-1.456-.124-2.895-.248-4.384-.372.736-2.109 1.464-4.177 2.2-6.286.091.116.157.207.223.298.398.579.778 1.166 1.2 1.728.248.331.223.704.281 1.067.174 1.067.323 2.134.48 3.21.016.099 0 .207 0 .355Z"/>
  <path fill="#1D3868" d="M16.617 38.627c-.48-.38-.951-.761-1.44-1.133a661.957 661.957 0 0 0-2.845-2.192c.017-.075.025-.149.05-.215.331-.736.662-1.464.993-2.2.058.008.116 0 .173.016 1.1.199 2.209.406 3.309.604.017.008.033.008.058.017a.063.063 0 0 0 .041.016c0 1.075 0 2.142-.008 3.218-.1.62-.199 1.249-.298 1.869h-.033Z"/>
  <path fill="#A9E6FE" d="M32.184 15.806c-2.308.885-4.583 1.762-6.89 2.647.016-.066.016-.1.033-.132.686-1.44 1.373-2.879 2.051-4.326.083-.174.165-.199.33-.124 1.465.628 2.929 1.257 4.401 1.886.017 0 .033.008.075.05Z"/>
  <path fill="#1E3868" d="M23.887 27.9c.232 1.414.464 2.828.704 4.242a.428.428 0 0 1-.133.43c-.794.811-1.58 1.63-2.365 2.449-.058.066-.133.116-.199.173.017-.09.033-.19.058-.28.232-.712.471-1.432.703-2.143.025-.083.017-.174.025-.257-.397-.05-.794-.099-1.2-.157-.322-.041-.645-.099-.967-.148l2.92-3.814c.14-.173.306-.33.454-.496Z"/>
  <path fill="#8BCCF7" d="M19.562 1.654c-2.217 1.266-4.442 2.523-6.7 3.813-.232-1.075-.447-2.1-.678-3.151 2.473-.24 4.921-.48 7.361-.712a.088.088 0 0 1 .017.05Z"/>
  <path fill="#71B3F7" d="M4.624 35.343h.082c.033.058.058.133.116.182.703.612 1.415 1.224 2.118 1.828.785.678 1.571 1.357 2.365 2.027.224.19.463.347.695.52l-.1.1c-.678-.091-1.347-.174-2.026-.265-.752-.107-1.505-.215-2.266-.322-.521-.075-1.042-.15-1.605-.224l.62-3.846Z"/>
  <path fill="#71B2F7" d="M23.887 27.9c-.148.165-.306.322-.446.495-.976 1.266-1.944 2.54-2.92 3.814h-.041l-.397-3.226.173-1.026.273-1.919c.116.05.24.1.356.157.926.497 1.845 1.001 2.763 1.497.074.042.165.042.248.058h.058c-.025.058-.05.108-.067.15Z"/>
  <path fill="#89CBF6" d="M22.688 32.506c-.008.091 0 .182-.025.257-.231.72-.471 1.43-.703 2.142-.033.091-.041.19-.058.281-.173.133-.33.281-.512.397a855.71 855.71 0 0 1-4.55 2.937c-.058.04-.132.057-.19.09.1-.62.199-1.248.298-1.869.066-.033.132-.066.19-.107 1.166-.869 2.34-1.737 3.507-2.606.678-.496 1.357-1.009 2.043-1.522Z"/>
  <path fill="#1E3868" d="M1.026 16.427c1.91.968 3.821 1.944 5.732 2.912.074.033.149.066.223.107-.008.008-.017.025-.025.033-.041.008-.074.017-.116.025l-4.532.298c-.017-.042-.042-.091-.058-.133-.19-.488-.389-.976-.58-1.464-.19-.504-.371-1-.562-1.505-.033-.083-.058-.182-.082-.273Zm4.896-3.987c-1.348 1.084-2.696 2.175-4.044 3.259-.042.033-.1.033-.15.05-.14-1.01-.289-2.019-.43-3.028-.008-.083-.008-.165-.016-.24.951-.008 1.902-.008 2.854-.016.595 0 1.19-.017 1.786-.025Z"/>
  <path fill="#89CBF6" d="m5.922 12.44-1.778.025c-.951.008-1.902.008-2.854.016.24-.306.472-.612.728-.91.521-.62 1.05-1.232 1.572-1.844.198.199.405.38.587.596.562.645 1.108 1.298 1.663 1.952.024.057.05.115.082.165Z"/>
  <path fill="#4878C9" d="M22.275 3.987c.306-1.357.603-2.655.91-3.987.851.538 1.67 1.05 2.53 1.588-1.141.794-2.258 1.58-3.44 2.399Z"/>
  <path fill="#71B3F7" d="M1.67 18.205c.191.488.39.976.58 1.464.016.041.041.091.058.132-.033.646-.066 1.29-.108 1.936l-.008.008-.017-.008c-.711 0-1.414 0-2.125-.008H.033c.199-.455.397-.902.604-1.349.347-.727.686-1.447 1.034-2.175Z"/>
  <path fill="#99C2DE" d="M.05 27.411v.05c-.017-.066-.05-.133-.05-.207v-5.335c0-.066.025-.124.033-.182H.05v3.201c0 .075.024.157.041.232-.008.016-.008.033-.017.05-.008.032-.016.066-.024.09v2.101Z"/>
  <path fill="#8ACBF7" d="M15.236 9.479c0-.017 0-.033.008-.05a.11.11 0 0 1 .05.008c-.025.017-.042.034-.058.042Z"/>
  <path fill="#89CBF7" d="M6.956 19.479c.008-.008.017-.025.025-.033.025-.009.05-.009.074-.017.083.017.166.05.257.05h4.582c.083 0 .157-.008.248-.017.008-.082.025-.149.017-.207-.066-.496-.15-.992-.215-1.488l-.224-1.663c.869-.24 1.746-.488 2.614-.728.695-.19 1.39-.372 2.085-.554-.058.1-.091.207-.166.29-.19.223-.397.43-.595.645l-2.217 2.365c-.389.414-.77.836-1.158 1.258-.025.033-.025.09-.033.14.025.1.041.207.074.306.248.786.505 1.563.761 2.35-.52.289-1.042.57-1.555.86-.579.322-1.141.653-1.72.975-.182.1-.265.19-.224.43.091.513.108 1.051.166 1.572.074.645.157 1.29.231 1.927.042.315.075.629.108.943.008.033.033.066.05.108v.041c-.414.017-.828.025-1.241.058-.745.058-1.497.124-2.242.19h-.05c-.09-.513-.173-1.034-.264-1.547l-.372-2.067c.058-.033.107-.075.165-.1.62-.264 1.241-.52 1.861-.777.497-.207 1.001-.414 1.514-.629-.041-.09-.066-.157-.1-.223-.62-1.15-1.24-2.3-1.869-3.45-.182-.355-.388-.677-.587-1.008Z"/>
  <path fill="#8ACBF7" d="M20.53 26.038c-.092.637-.183 1.282-.274 1.92-.05.338-.115.686-.173 1.025h-3.3c-.075 0-.15.033-.232.05-.356-.307-.72-.604-1.075-.91-.265-.232-.522-.48-.786-.712.083-.223.157-.455.256-.678.414-.926.836-1.853 1.266-2.77.033-.075.165-.117.248-.166.802.438 1.604.885 2.407 1.323.554.298 1.108.612 1.662.918Z"/>
  <path fill="#A8E6FE" d="M20.53 26.038c-.555-.306-1.1-.62-1.655-.926a347.68 347.68 0 0 0-2.407-1.324v-.058c.256-.033.513-.066.77-.09.603-.059 1.215-.1 1.82-.158.628-.058 1.256-.124 1.885-.182.562-.058 1.133-.107 1.695-.157.737-.066 1.473-.124 2.209-.19-.149.777-.306 1.563-.455 2.34-.165.82-.322 1.638-.488 2.466-.083-.017-.174-.025-.248-.058-.926-.497-1.845-1.001-2.763-1.498-.124-.066-.248-.115-.364-.165Z"/>
  <path fill="#71B3F7" d="M14.698 27.403c.265.24.521.48.786.71.355.307.711.605 1.075.91l.05.654c.033.472.066.951.107 1.423.066.802.133 1.613.19 2.415-.016-.008-.033-.008-.057-.017-.083-.074-.157-.157-.248-.223-.513-.372-1.018-.752-1.539-1.116-.67-.48-1.323-.968-2.018-1.406-.951-.604-1.936-1.159-2.912-1.738v-.04c1.398-.497 2.804-.993 4.202-1.49.124-.033.248-.05.364-.082Zm1.911-12.63c.446.099.893.206 1.34.297 1.373.282 2.746.563 4.11.852a.83.83 0 0 1 .174.083l-2.498 1.754c-1.1.777-2.2 1.563-3.3 2.349-.14.099-.281.182-.43.273.025-.331.033-.662.066-1.001.058-.596.124-1.191.182-1.787.058-.57.133-1.141.182-1.72.033-.364.033-.728.05-1.092 0-.008 0-.025.008-.033a.26.26 0 0 1 .116.025Zm8.23 8.18c-.736.066-1.473.124-2.209.19-.562.05-1.133.1-1.695.157-.629.058-1.258.124-1.886.182-.604.058-1.216.1-1.82.157-.256.025-.513.058-.77.091.017-.033.026-.082.05-.099 1.431-.645 2.862-1.282 4.293-1.927.96-.43 1.911-.86 2.87-1.299l1.117 2.333c.025.074.033.149.05.215Z"/>
  <path fill="#A8E6FE" d="M16.493 14.773c-.017.364-.017.728-.05 1.091-.05.571-.116 1.142-.182 1.72-.066.596-.124 1.192-.182 1.788-.033.33-.041.661-.066 1-.016.009-.025.025-.041.034-.57-.141-1.15-.282-1.72-.414l-2.01-.472c.008-.05.008-.107.033-.14.38-.422.769-.844 1.158-1.257l2.216-2.366c.199-.215.406-.422.596-.645.074-.083.107-.19.165-.29.033-.016.058-.033.083-.05Z"/>
  <path fill="#71B3F7" d="m12.25 19.52 2.01.472c.57.14 1.15.273 1.72.413.108 1.084.215 2.176.331 3.317a716.904 716.904 0 0 1-3.226-1.555c-.256-.786-.504-1.563-.76-2.349-.034-.1-.05-.199-.075-.298Z"/>
  <path fill="#1D3867" d="M16.493 14.773c-.025.016-.058.033-.083.05-.694.181-1.39.363-2.084.553-.877.24-1.745.488-2.614.728a56.057 56.057 0 0 1-1.257-.256c-.72-.149-1.44-.298-2.159-.455.257-.827.513-1.654.778-2.481.016 0 .033 0 .05-.009 1.083 0 2.166 0 3.25.009a.96.96 0 0 1 .397.09c1.249.571 2.498 1.15 3.738 1.73-.016.016-.016.032-.016.04Z"/>
  <path fill="#71B2F7" d="M8.296 15.401c.72.15 1.44.306 2.159.455.422.091.835.174 1.257.257.075.554.14 1.108.223 1.662.067.497.15.993.215 1.49.009.057-.008.123-.016.206-.091.008-.165.016-.248.016H7.304c-.083 0-.166-.033-.257-.05.174-.57.348-1.149.521-1.72.248-.785.488-1.546.728-2.316Zm-1.34 4.078c.199.33.414.662.596 1 .628 1.15 1.249 2.3 1.869 3.45.033.066.058.132.1.223-.514.215-1.018.422-1.514.629-.62.256-1.241.513-1.861.777-.058.025-.108.067-.166.1-.653.066-1.307.124-1.96.19-.405.041-.81.074-1.208.107l-.554.05c-.736-.232-1.472-.455-2.2-.686a.818.818 0 0 1 .025-.091c.074-.034.149-.058.215-.1.695-.422 1.39-.852 2.084-1.273a.717.717 0 0 1 .364-.108c.976.008 1.952.017 2.928.066.645.033 1.299.116 1.944.174l1.786.149c-.736-.372-1.48-.712-2.216-1.059l-2.829-1.315c.438-.38.877-.761 1.323-1.142.364-.306.737-.612 1.092-.926.042-.041.05-.124.066-.182a.207.207 0 0 1 .116-.033Zm-.339 9.793h.05c.182.323.364.637.537.96l.596 1.091c-.546-.05-1.092-.099-1.646-.157l-1.737-.173c-.149-.017-.29-.025-.439-.042-.264-.322-.52-.645-.785-.96-.43-.504-.86-.992-1.29-1.496-.034-.033-.042-.083-.092-.182 1.63.322 3.218.645 4.806.96Z"/>
  <path fill="#8ACBF7" d="M.05 25.302c.736.232 1.472.455 2.2.686-.05.257-.091.513-.15.762-.115.496-.23.992-.363 1.53-.587-.306-1.141-.588-1.696-.877.009-.695.009-1.398.009-2.101Z"/>
  <path fill="#4677C8" d="M13.375 32.895c-.331.736-.662 1.464-.993 2.2-.033.066-.033.14-.05.215-.057.042-.132.066-.173.116a211.53 211.53 0 0 0-1.977 1.927c-.356.348-.711.695-1.059 1.042-.033-.05-.082-.099-.107-.157-.232-.554-.455-1.116-.679-1.679l-.744-1.91c.041-.646.091-1.29.132-1.936.033-.463.075-.918.108-1.373.041 0 .083 0 .124.008.993.282 1.993.563 2.986.844.81.232 1.621.463 2.432.703Z"/>
  <path fill="#A8E6FE" d="M13.375 32.895c-.81-.232-1.621-.471-2.44-.703l-2.986-.844c-.042-.008-.083-.008-.124-.008-.017-.008-.025-.008-.042-.016-.198-.364-.388-.728-.595-1.092-.174-.323-.364-.637-.538-.96.745-.066 1.497-.132 2.242-.19.413-.033.827-.041 1.24-.058.968.58 1.952 1.133 2.912 1.737.695.439 1.348.935 2.018 1.406.513.364 1.026.745 1.539 1.117.09.066.165.149.248.223-1.1-.198-2.209-.405-3.309-.604-.05-.008-.107-.008-.165-.008Z"/>
  <path fill="#89CBF6" d="M7.593 34.649c.248.637.488 1.273.744 1.91.224.563.447 1.117.679 1.68.025.057.066.099.107.157.166.29.34.587.505.876.124.215.248.43.38.645-.231-.173-.471-.339-.694-.52-.795-.67-1.58-1.349-2.366-2.027-.711-.604-1.414-1.216-2.118-1.828-.05-.041-.074-.116-.115-.182.794-.199 1.58-.389 2.374-.587.157-.058.33-.091.504-.124Z"/>
  <path fill="#A8E6FE" d="M16.907 33.524c-.067-.803-.133-1.613-.19-2.416-.034-.471-.067-.95-.108-1.422l-.05-.654c.075-.016.149-.05.232-.05h3.3l.397 3.227c-.563.214-1.125.421-1.687.636-.612.232-1.233.464-1.853.695-.017-.008-.033-.008-.041-.016Z"/>
  <path fill="#4677C8" d="M16.948 33.54c.62-.231 1.232-.463 1.853-.695.562-.215 1.125-.422 1.687-.636h.041l.968.148c.397.058.794.1 1.2.157-.687.513-1.365 1.026-2.052 1.53-1.166.87-2.34 1.738-3.507 2.606a1.461 1.461 0 0 1-.19.108c-.008-1.076 0-2.15 0-3.218Z"/>
  <path fill="#A8E6FE" d="M6.84 19.496c-.024.066-.024.149-.066.182-.364.314-.728.62-1.092.926-.438.38-.876.76-1.323 1.141-.72-.008-1.44-.008-2.159-.016.033-.645.066-1.29.108-1.936l4.532-.297Z"/>
  <path fill="#1E3868" d="M2.208 21.729c.72.008 1.44.008 2.16.016l2.828 1.316c.744.347 1.489.686 2.217 1.058-.596-.05-1.191-.09-1.787-.149-.645-.058-1.29-.149-1.944-.173-.976-.042-1.952-.05-2.928-.067a.717.717 0 0 0-.364.108c-.694.422-1.39.852-2.084 1.274-.066.041-.149.066-.215.099.008-.016.008-.033.017-.05l2.084-3.424.016.008v-.016Z"/>
  <path fill="#A8E6FE" d="M2.175 21.737.091 25.161c-.017-.074-.041-.157-.041-.231v-3.201c.711 0 1.422 0 2.125.008Z"/>
</svg>
